<svg width="195" height="54" viewBox="0 0 65 18" fill="none" xmlns="http://www.w3.org/2000/svg">
<path fill-rule="evenodd" clip-rule="evenodd" d="M23.2756 17.4545V8.96591C23.2756 8.20455 23.4375 7.53977 23.7614 6.97159C24.0852 6.39773 24.5312 5.9517 25.0994 5.63352C25.6676 5.31534 26.3153 5.15625 27.0426 5.15625C28.1278 5.15625 29 5.49716 29.6591 6.17898C30.3239 6.85511 30.6562 7.75 30.6562 8.86364V17.4545H31.696V8.82102C31.696 7.86648 31.5057 7.04545 31.125 6.35795C30.75 5.66477 30.2273 5.13068 29.5568 4.75568C28.892 4.38068 28.1193 4.19318 27.2386 4.19318C26.3068 4.19318 25.5028 4.39773 24.8267 4.80682C24.1506 5.21591 23.6591 5.75852 23.3523 6.43466H23.25V4.36364H22.2358V17.4545H23.2756ZM36.0757 16.858C36.8598 17.4375 37.7774 17.7273 38.8285 17.7273C39.5728 17.7273 40.2234 17.5852 40.7802 17.3011C41.337 17.0114 41.803 16.6307 42.178 16.1591C42.553 15.6818 42.8456 15.1619 43.0558 14.5994H43.1836V17.4545H44.1893V0H43.1581V7.28693H43.0558C42.8569 6.72443 42.5672 6.20739 42.1865 5.7358C41.8115 5.2642 41.3456 4.88636 40.7887 4.60227C40.2376 4.3125 39.587 4.16761 38.837 4.16761C37.7916 4.16761 36.8768 4.46023 36.0927 5.04545C35.3086 5.625 34.6978 6.42614 34.2603 7.44886C33.8285 8.46591 33.6126 9.63068 33.6126 10.9432C33.6126 12.267 33.8257 13.4403 34.2518 14.4631C34.6836 15.4801 35.2916 16.2784 36.0757 16.858ZM41.1978 16.0057C40.5672 16.5114 39.8086 16.7642 38.9223 16.7642C38.0245 16.7642 37.2547 16.5085 36.6126 15.9972C35.9762 15.4801 35.4876 14.7812 35.1467 13.9006C34.8115 13.0199 34.6439 12.0312 34.6439 10.9347C34.6439 9.83807 34.8115 8.85227 35.1467 7.97727C35.4876 7.10227 35.9762 6.41193 36.6126 5.90625C37.2547 5.39489 38.0245 5.1392 38.9223 5.1392C39.8086 5.1392 40.5672 5.39205 41.1978 5.89773C41.8342 6.39773 42.32 7.08523 42.6552 7.96023C42.9961 8.82955 43.1666 9.82102 43.1666 10.9347C43.1666 12.0483 42.9961 13.0455 42.6552 13.9261C42.32 14.8011 41.8342 15.4943 41.1978 16.0057ZM49.2082 16.8494C50.0832 17.4347 51.1116 17.7273 52.2934 17.7273C53.157 17.7273 53.907 17.5824 54.5434 17.2926C55.1855 17.0028 55.7139 16.642 56.1286 16.2102C56.5491 15.7727 56.8587 15.3352 57.0576 14.8977L56.1116 14.5142C55.9468 14.8381 55.7025 15.1733 55.3786 15.5199C55.0548 15.8665 54.6372 16.1619 54.1258 16.4062C53.6201 16.6449 53.0093 16.7642 52.2934 16.7642C51.2934 16.7642 50.4355 16.5142 49.7195 16.0142C49.0036 15.5085 48.4525 14.8239 48.0661 13.9602C47.6994 13.1227 47.5093 12.1824 47.4959 11.1392H57.4837V10.4915C57.4837 9.51989 57.3389 8.64489 57.0491 7.86648C56.765 7.08807 56.3701 6.4233 55.8644 5.87216C55.3644 5.32102 54.7849 4.90057 54.1258 4.6108C53.4724 4.31534 52.7792 4.16761 52.0462 4.16761C50.9667 4.16761 50.0065 4.46307 49.1656 5.05398C48.3247 5.64489 47.6627 6.4517 47.1798 7.47443C46.7025 8.49716 46.4639 9.66193 46.4639 10.9688C46.4639 12.2699 46.7025 13.429 47.1798 14.446C47.657 15.4631 48.3332 16.2642 49.2082 16.8494ZM47.5119 10.1932C47.5699 9.33364 47.7688 8.54671 48.1087 7.83239C48.5065 7.00852 49.0434 6.35511 49.7195 5.87216C50.4014 5.38352 51.1769 5.1392 52.0462 5.1392C52.8758 5.1392 53.623 5.36364 54.2877 5.8125C54.9525 6.26136 55.4781 6.86648 55.8644 7.62784C56.2508 8.3892 56.444 9.24432 56.444 10.1932H47.5119ZM60.3975 4.36364H59.3833V17.4545H60.4231V8.82955C60.4231 8.125 60.585 7.5 60.9089 6.95455C61.2327 6.40341 61.6759 5.97159 62.2384 5.65909C62.8066 5.34659 63.4543 5.19034 64.1816 5.19034C64.318 5.19034 64.4316 5.19886 64.5225 5.21591C64.6191 5.22727 64.7015 5.2358 64.7697 5.24148V4.19318C64.6901 4.1875 64.6049 4.18466 64.514 4.18466H64.2412C63.3776 4.18466 62.6077 4.3892 61.9316 4.7983C61.2555 5.2017 60.7753 5.73864 60.4912 6.40909H60.3975V4.36364ZM11.65 6.09091C11.65 7.01136 11.4838 7.80682 11.1514 8.47727C10.8191 9.14773 10.3631 9.66477 9.78355 10.0284C9.204 10.392 8.54207 10.5739 7.79775 10.5739C7.05343 10.5739 6.3915 10.392 5.81195 10.0284C5.23241 9.66477 4.77644 9.14773 4.44406 8.47727C4.11167 7.80682 3.94548 7.01136 3.94548 6.09091C3.94548 5.17045 4.11167 4.375 4.44406 3.70455C4.77644 3.03409 5.23241 2.51705 5.81195 2.15341C6.3915 1.78977 7.05343 1.60795 7.79775 1.60795C8.54207 1.60795 9.204 1.78977 9.78355 2.15341C10.3631 2.51705 10.8191 3.03409 11.1514 3.70455C11.4838 4.375 11.65 5.17045 11.65 6.09091ZM10.6273 6.09091C10.6273 5.33523 10.5009 4.69744 10.248 4.17756C9.99803 3.65767 9.65855 3.2642 9.22957 2.99716C8.80343 2.73011 8.32616 2.59659 7.79775 2.59659C7.26934 2.59659 6.79065 2.73011 6.36167 2.99716C5.93553 3.2642 5.59605 3.65767 5.3432 4.17756C5.0932 4.69744 4.9682 5.33523 4.9682 6.09091C4.9682 6.84659 5.0932 7.48438 5.3432 8.00426C5.59605 8.52415 5.93553 8.91761 6.36167 9.18466C6.79065 9.4517 7.26934 9.58523 7.79775 9.58523C8.32616 9.58523 8.80343 9.4517 9.22957 9.18466C9.65855 8.91761 9.99803 8.52415 10.248 8.00426C10.5009 7.48438 10.6273 6.84659 10.6273 6.09091ZM14.2963 10.4545H14.2947V17.4545H13.2891V8.72727H13.2906V1.72727H14.2963V10.4545ZM18.0644 10.608C17.6497 10.608 17.2732 10.5298 16.9352 10.3736C16.5971 10.2145 16.3286 9.9858 16.1298 9.6875C15.9309 9.38636 15.8315 9.02273 15.8315 8.59659C15.8315 8.22159 15.9053 7.91761 16.0531 7.68466C16.2008 7.44886 16.3982 7.2642 16.6454 7.13068C16.8926 6.99716 17.1653 6.89773 17.4636 6.83239C17.7647 6.7642 18.0673 6.71023 18.3713 6.67045C18.769 6.61932 19.0914 6.58097 19.3386 6.5554C19.5886 6.52699 19.7704 6.48011 19.884 6.41477C20.0005 6.34943 20.0588 6.2358 20.0588 6.07386V6.03977C20.0588 5.61932 19.9437 5.29261 19.7136 5.05966C19.4863 4.8267 19.1411 4.71023 18.6781 4.71023C18.198 4.71023 17.8215 4.81534 17.5488 5.02557C17.2761 5.2358 17.0843 5.46023 16.9735 5.69886L16.019 5.35795C16.1894 4.96023 16.4167 4.65057 16.7008 4.42898C16.9877 4.20455 17.3002 4.0483 17.6383 3.96023C17.9792 3.86932 18.3144 3.82386 18.644 3.82386C18.8542 3.82386 19.0957 3.84943 19.3684 3.90057C19.644 3.94886 19.9096 4.04972 20.1653 4.20312C20.4238 4.35653 20.6383 4.58807 20.8088 4.89773C20.9792 5.20739 21.0644 5.62216 21.0644 6.14205V10.4545H20.0588V9.56818H20.0076C19.9394 9.71023 19.8258 9.86222 19.6667 10.0241C19.5076 10.1861 19.296 10.3239 19.0318 10.4375C18.7676 10.5511 18.4451 10.608 18.0644 10.608ZM18.2178 9.70455C18.6156 9.70455 18.9508 9.62642 19.2235 9.47017C19.4991 9.31392 19.7065 9.11222 19.8457 8.86506C19.9877 8.6179 20.0588 8.35795 20.0588 8.08523V7.16477C20.0161 7.21591 19.9224 7.26278 19.7775 7.3054C19.6355 7.34517 19.4707 7.38068 19.2832 7.41193C19.0985 7.44034 18.9181 7.46591 18.742 7.48864C18.5687 7.50852 18.4281 7.52557 18.3201 7.53977C18.0588 7.57386 17.8144 7.62926 17.5872 7.70597C17.3627 7.77983 17.1809 7.89205 17.0417 8.04261C16.9053 8.19034 16.8372 8.39205 16.8372 8.64773C16.8372 8.99716 16.9664 9.26136 17.225 9.44034C17.4863 9.61648 17.8173 9.70455 18.2178 9.70455ZM1.00568 17.4545V15.005L1.71005 14.3524L4.15909 17.4545H5.4375L2.46746 13.7055L5.23295 10.9091H3.98864L1.125 13.8239H1.00568V8.72727H0V17.4545H1.00568ZM8.45348 17.608C8.03871 17.608 7.66229 17.5298 7.32422 17.3736C6.98615 17.2145 6.71768 16.9858 6.51882 16.6875C6.31996 16.3864 6.22052 16.0227 6.22052 15.5966C6.22052 15.2216 6.29439 14.9176 6.44212 14.6847C6.58984 14.4489 6.78729 14.2642 7.03444 14.1307C7.2816 13.9972 7.55433 13.8977 7.85263 13.8324C8.15376 13.7642 8.45632 13.7102 8.7603 13.6705C9.15802 13.6193 9.48047 13.581 9.72763 13.5554C9.97763 13.527 10.1594 13.4801 10.2731 13.4148C10.3896 13.3494 10.4478 13.2358 10.4478 13.0739V13.0398C10.4478 12.6193 10.3327 12.2926 10.1026 12.0597C9.87535 11.8267 9.53018 11.7102 9.06711 11.7102C8.587 11.7102 8.21058 11.8153 7.93785 12.0256C7.66513 12.2358 7.47337 12.4602 7.36257 12.6989L6.40802 12.358C6.57848 11.9602 6.80575 11.6506 7.08984 11.429C7.37677 11.2045 7.68927 11.0483 8.02734 10.9602C8.36825 10.8693 8.70348 10.8239 9.03302 10.8239C9.24325 10.8239 9.48473 10.8494 9.75746 10.9006C10.033 10.9489 10.2986 11.0497 10.5543 11.2031C10.8129 11.3565 11.0273 11.5881 11.1978 11.8977C11.3683 12.2074 11.4535 12.6222 11.4535 13.142V17.4545H10.4478V16.5682H10.3967C10.3285 16.7102 10.2148 16.8622 10.0558 17.0241C9.89666 17.1861 9.68501 17.3239 9.42081 17.4375C9.1566 17.5511 8.83416 17.608 8.45348 17.608ZM8.60689 16.7045C9.00461 16.7045 9.33984 16.6264 9.61257 16.4702C9.88814 16.3139 10.0955 16.1122 10.2347 15.8651C10.3768 15.6179 10.4478 15.358 10.4478 15.0852V14.1648C10.4052 14.2159 10.3114 14.2628 10.1665 14.3054C10.0245 14.3452 9.85973 14.3807 9.67223 14.4119C9.48757 14.4403 9.30717 14.4659 9.13104 14.4886C8.95774 14.5085 8.81712 14.5256 8.70916 14.5398C8.4478 14.5739 8.20348 14.6293 7.97621 14.706C7.75177 14.7798 7.56996 14.892 7.43075 15.0426C7.29439 15.1903 7.22621 15.392 7.22621 15.6477C7.22621 15.9972 7.35547 16.2614 7.61399 16.4403C7.87535 16.6165 8.20632 16.7045 8.60689 16.7045ZM18.881 17.5909C18.2504 17.5909 17.7063 17.4517 17.2489 17.1733C16.7944 16.892 16.4435 16.5 16.1964 15.9972C15.9521 15.4915 15.8299 14.9034 15.8299 14.233C15.8299 13.5625 15.9521 12.9716 16.1964 12.4602C16.4435 11.946 16.7873 11.5455 17.2276 11.2585C17.6708 10.9688 18.1879 10.8239 18.7788 10.8239C19.1197 10.8239 19.4563 10.8807 19.7887 10.9943C20.1211 11.108 20.4236 11.2926 20.6964 11.5483C20.9691 11.8011 21.1864 12.1364 21.3484 12.554C21.5103 12.9716 21.5913 13.4858 21.5913 14.0966V14.5227H16.8378C16.8522 14.9582 16.9367 15.3318 17.0913 15.6435C17.2646 15.9844 17.5046 16.2443 17.8114 16.4233C18.1183 16.5994 18.4748 16.6875 18.881 16.6875C19.1452 16.6875 19.3839 16.6506 19.5969 16.5767C19.8129 16.5 19.9989 16.3864 20.1552 16.2358C20.3114 16.0824 20.4322 15.892 20.5174 15.6648L21.489 15.9375C21.3867 16.267 21.2148 16.5568 20.9734 16.8068C20.7319 17.054 20.4336 17.2472 20.0785 17.3864C19.7234 17.5227 19.3242 17.5909 18.881 17.5909ZM17.07 12.7926C16.9361 13.0629 16.8595 13.3498 16.8404 13.6534H20.5685C20.5685 13.2841 20.4947 12.9545 20.3469 12.6648C20.2021 12.375 19.9947 12.1463 19.7248 11.9787C19.4577 11.8111 19.1424 11.7273 18.7788 11.7273C18.3782 11.7273 18.0316 11.8267 17.739 12.0256C17.4492 12.2216 17.2262 12.4773 17.07 12.7926Z" fill="black"/>
</svg>
