<svg width="17" height="10" viewBox="0 0 17 10" fill="none" xmlns="http://www.w3.org/2000/svg">
<path d="M8.42045 4.63636C8.42045 5.55682 8.25426 6.35227 7.92188 7.02273C7.58949 7.69318 7.13352 8.21023 6.55398 8.57386C5.97443 8.9375 5.3125 9.11932 4.56818 9.11932C3.82386 9.11932 3.16193 8.9375 2.58239 8.57386C2.00284 8.21023 1.54688 7.69318 1.21449 7.02273C0.882102 6.35227 0.715909 5.55682 0.715909 4.63636C0.715909 3.71591 0.882102 2.92045 1.21449 2.25C1.54688 1.57955 2.00284 1.0625 2.58239 0.698864C3.16193 0.335227 3.82386 0.153409 4.56818 0.153409C5.3125 0.153409 5.97443 0.335227 6.55398 0.698864C7.13352 1.0625 7.58949 1.57955 7.92188 2.25C8.25426 2.92045 8.42045 3.71591 8.42045 4.63636ZM7.39773 4.63636C7.39773 3.88068 7.27131 3.2429 7.01847 2.72301C6.76847 2.20312 6.42898 1.80966 6 1.54261C5.57386 1.27557 5.09659 1.14205 4.56818 1.14205C4.03977 1.14205 3.56108 1.27557 3.1321 1.54261C2.70597 1.80966 2.36648 2.20312 2.11364 2.72301C1.86364 3.2429 1.73864 3.88068 1.73864 4.63636C1.73864 5.39205 1.86364 6.02983 2.11364 6.54972C2.36648 7.0696 2.70597 7.46307 3.1321 7.73011C3.56108 7.99716 4.03977 8.13068 4.56818 8.13068C5.09659 8.13068 5.57386 7.99716 6 7.73011C6.42898 7.46307 6.76847 7.0696 7.01847 6.54972C7.27131 6.02983 7.39773 5.39205 7.39773 4.63636ZM10.1974 9V0.272727H11.2543V4.60227H11.3565L15.277 0.272727H16.6577L12.9929 4.21023L16.6577 9H15.3793L12.3452 4.94318L11.2543 6.17045V9H10.1974Z" fill="black"/>
</svg>
